<?xml version="1.0" ?><!DOCTYPE svg  PUBLIC '-//W3C//DTD SVG 1.1//EN'
        'http://www.w3.org/Graphics/SVG/1.1/DTD/svg11.dtd'>
<svg height="16px" id="Layer_1" style="enable-background:new 0 0 16 16;" version="1.1" viewBox="0 0 16 16" width="16px" x="0px" xml:space="preserve" xmlns="http://www.w3.org/2000/svg" xmlns:xlink="http://www.w3.org/1999/xlink" y="0px"><path d="M14,8c-0.609,0-0.898,0.43-1,0.883C12.635,10.516,11.084,13,8,13c-0.757,0-1.473-0.172-2.114-0.474L6.414,12  C6.773,11.656,7,11.445,7,11c0-0.523-0.438-1-1-1H3c-0.609,0-1,0.492-1,1v3c0,0.541,0.428,1,1,1c0.484,0,0.688-0.273,1-0.594  l0.408-0.407C5.458,14.632,6.685,15,8,15c4.99,0,7-4.75,7-5.938C15,8.336,14.469,8,14,8z M3,7.117C3.365,5.485,4.916,3,8,3  c0.757,0,1.473,0.171,2.114,0.473L9.586,4C9.227,4.344,9,4.555,9,5c0,0.523,0.438,1,1,1h3c0.609,0,1-0.492,1-1V2  c0-0.541-0.428-1-1-1c-0.484,0-0.688,0.273-1,0.594l-0.408,0.407C10.542,1.368,9.315,1,8,1C3.01,1,1,5.75,1,6.938  C1,7.664,1.531,8,2,8C2.609,8,2.898,7.57,3,7.117z"/></svg>