<!-- Generated by IcoMoon.io -->
<svg version="1.1" xmlns="http://www.w3.org/2000/svg" width="448" height="512" viewBox="0 0 448 512">
    <title></title>
    <g id="icomoon-ignore">
    </g>
    <path d="M192 288h128l32-32-32-32h-64v-96l-32-32-32 32v160zM224 32c-123.719 0-224 100.281-224 224s100.281 224 224 224c123.719 0 224-100.281 224-224s-100.281-224-224-224zM224 416c-88.125 0-160-71.875-160-160 0-87.969 72.094-159.75 160-160 87.906 0.25 160 72.031 160 160 0 88.125-71.875 160-160 160z"></path>
</svg>
