<!-- Generated by IcoMoon.io -->
<svg version="1.1" xmlns="http://www.w3.org/2000/svg" width="512" height="512" viewBox="0 0 512 512">
    <title></title>
    <g id="icomoon-ignore">
    </g>
    <path d="M274.51 370.51c-6.143 0-12.283-2.343-16.971-7.029-9.373-9.373-9.373-24.567 0-33.94 40.55-40.55 40.55-106.529 0-147.078-9.373-9.373-9.373-24.569 0-33.941s24.568-9.372 33.941 0c59.265 59.265 59.265 155.696 0 214.961-4.686 4.684-10.828 7.027-16.97 7.027z"></path>
    <path d="M208.003 480c-4.164 0-8.256-1.625-11.317-4.687l-123.313-123.313h-57.373c-8.836 0-16-7.163-16-16v-160c0-8.836 7.164-16 16-16h57.373l123.313-123.314c4.577-4.577 11.458-5.945 17.437-3.468s9.877 8.311 9.877 14.782v416c0 6.472-3.898 12.306-9.877 14.782-1.979 0.82-4.059 1.218-6.12 1.218z"></path>
</svg>
