<!-- Generated by IcoMoon.io -->
<svg version="1.1" xmlns="http://www.w3.org/2000/svg" width="512" height="512" viewBox="0 0 512 512">
    <title></title>
    <g id="icomoon-ignore">
    </g>
    <path d="M256 0c-141.385 0-256 114.615-256 256s114.615 256 256 256 256-114.615 256-256-114.615-256-256-256zM160 224c-17.673 0-32-21.49-32-48s14.327-48 32-48 32 21.49 32 48-14.327 48-32 48zM256 416c-35.346 0-64-28.654-64-64s28.654-64 64-64c35.346 0 64 28.654 64 64s-28.654 64-64 64zM352 224c-17.673 0-32-21.49-32-48s14.327-48 32-48 32 21.49 32 48-14.327 48-32 48z"></path>
</svg>
