<!-- Generated by IcoMoon.io -->
<svg version="1.1" xmlns="http://www.w3.org/2000/svg" width="512" height="512" viewBox="0 0 512 512">
    <title></title>
    <g id="icomoon-ignore">
    </g>
    <path d="M480 309.574v42.426h-42.426l-53.574-53.574-53.574 53.574h-42.426v-42.426l53.574-53.574-53.574-53.574v-42.426h42.426l53.574 53.574 53.574-53.574h42.426v42.426l-53.574 53.574 53.574 53.574z"></path>
    <path d="M208.003 480c-4.164 0-8.256-1.625-11.317-4.687l-123.313-123.313h-57.373c-8.836 0-16-7.163-16-16v-160c0-8.836 7.164-16 16-16h57.373l123.313-123.314c4.577-4.577 11.458-5.945 17.437-3.468s9.877 8.311 9.877 14.782v416c0 6.472-3.898 12.306-9.877 14.782-1.979 0.82-4.059 1.218-6.12 1.218z"></path>
</svg>
